<svg width="945" height="214" viewBox="0 0 945 214" fill="none" xmlns="http://www.w3.org/2000/svg">
<mask id="mask0_61_811" style="mask-type:alpha" maskUnits="userSpaceOnUse" x="0" y="0" width="945" height="214">
<rect width="945" height="213.76" fill="white"/>
</mask>
<g mask="url(#mask0_61_811)">
<path d="M-2.14987 160.603C-16.2351 166.032 -26.799 168.143 -30.3203 168.52V214.891H962.688V45.2402C948.211 57.3043 913.624 80.0752 891.088 74.6464C862.917 67.8603 831.226 68.9913 810.098 74.6464C788.97 80.3014 776.059 88.2184 752.583 89.3494C729.108 90.4804 736.15 84.8254 699.764 81.4324C663.377 78.0394 648.118 110.839 630.511 119.887C612.905 128.935 568.302 126.673 551.869 119.887C535.436 113.101 521.351 110.839 508.439 110.839C495.528 110.839 495.528 118.756 476.748 119.887C457.967 121.018 439.187 109.708 413.364 110.839C387.541 111.97 352.328 133.459 325.332 134.59C298.335 135.721 314.768 128.935 276.033 126.673C237.299 124.411 206.781 153.817 182.132 160.603C157.483 167.389 121.096 152.686 101.142 148.162C81.1877 143.638 62.4074 160.603 47.1484 160.603C31.8894 160.603 15.4567 153.817 -2.14987 160.603Z" fill="#00A700" fill-opacity="0.1" stroke="#00A700" stroke-width="2"/>
</g>
</svg>
