<svg width="16" height="17" viewBox="0 0 16 17" fill="none" xmlns="http://www.w3.org/2000/svg">
<g clip-path="url(#clip0_5_52472)">
<path fill-rule="evenodd" clip-rule="evenodd" d="M1.74988 2.5C0.78338 2.5 -0.000122066 3.2835 -0.000122066 4.25V4.98577C-0.000285027 4.99479 -0.000284637 5.00381 -0.000122066 5.01282V12.75C-0.000122066 13.7165 0.783379 14.5 1.74988 14.5H14.2499C15.2164 14.5 15.9999 13.7165 15.9999 12.75V5.01265C16.0001 5.00376 16.0001 4.99485 15.9999 4.98594V4.25C15.9999 3.2835 15.2164 2.5 14.2499 2.5H1.74988ZM14.4999 4.57029V4.25C14.4999 4.11193 14.388 4 14.2499 4H1.74988C1.61181 4 1.49988 4.11193 1.49988 4.25V4.57029L7.99988 8.38063L14.4999 4.57029ZM1.49988 6.30902V12.75C1.49988 12.8881 1.61181 13 1.74988 13H14.2499C14.388 13 14.4999 12.8881 14.4999 12.75V6.30902L8.37917 9.89702C8.14495 10.0343 7.85481 10.0343 7.62059 9.89702L1.49988 6.30902Z" fill="#4F5665"/>
</g>
<defs>
<clipPath id="clip0_5_52472">
<rect width="16" height="16" fill="white" transform="translate(0 0.5)"/>
</clipPath>
</defs>
</svg>
