<svg width="278" height="66" viewBox="0 0 278 66" fill="none" xmlns="http://www.w3.org/2000/svg">
<rect y="16" width="278" height="8" rx="4" fill="#F5F6F8"/>
<rect x="45" y="16" width="154" height="8" rx="4" fill="#FF8906"/>
<g filter="url(#filter0_d_20_4926)">
<circle cx="44.5" cy="19.5" r="13.5" fill="white"/>
</g>
<g filter="url(#filter1_d_20_4926)">
<circle cx="198.5" cy="19.5" r="13.5" fill="white"/>
</g>
<path d="M28.3607 58V49.06H29.3207V58H28.3607ZM34.203 58.144C33.603 58.144 33.063 58 32.583 57.712C32.103 57.416 31.723 57.016 31.443 56.512C31.171 56 31.035 55.424 31.035 54.784C31.035 54.136 31.171 53.56 31.443 53.056C31.723 52.552 32.099 52.156 32.571 51.868C33.051 51.572 33.595 51.424 34.203 51.424C34.755 51.424 35.247 51.544 35.679 51.784C36.111 52.024 36.451 52.348 36.699 52.756L36.555 53.008V48.916H37.455V58H36.555V56.56L36.699 56.692C36.475 57.156 36.139 57.516 35.691 57.772C35.251 58.02 34.755 58.144 34.203 58.144ZM34.251 57.244C34.683 57.244 35.071 57.136 35.415 56.92C35.767 56.704 36.043 56.412 36.243 56.044C36.451 55.668 36.555 55.248 36.555 54.784C36.555 54.32 36.451 53.904 36.243 53.536C36.043 53.16 35.767 52.864 35.415 52.648C35.071 52.432 34.683 52.324 34.251 52.324C33.827 52.324 33.443 52.432 33.099 52.648C32.755 52.864 32.483 53.156 32.283 53.524C32.091 53.892 31.995 54.312 31.995 54.784C31.995 55.248 32.091 55.668 32.283 56.044C32.483 56.412 32.751 56.704 33.087 56.92C33.431 57.136 33.819 57.244 34.251 57.244ZM39.3029 58V51.568H40.2029V52.624L40.0829 52.468C40.2349 52.164 40.4629 51.924 40.7669 51.748C41.0789 51.572 41.4549 51.484 41.8949 51.484H42.3029V52.384H41.7389C41.2749 52.384 40.9029 52.528 40.6229 52.816C40.3429 53.104 40.2029 53.512 40.2029 54.04V58H39.3029ZM43.1891 58V56.68H44.1491V58H43.1891ZM48.9147 58.144C48.4507 58.144 48.0227 58.064 47.6307 57.904C47.2387 57.744 46.8947 57.516 46.5987 57.22C46.3107 56.924 46.0907 56.572 45.9387 56.164L46.7067 55.804C46.8907 56.268 47.1787 56.636 47.5707 56.908C47.9627 57.172 48.4107 57.304 48.9147 57.304C49.3147 57.304 49.6707 57.228 49.9827 57.076C50.2947 56.916 50.5387 56.688 50.7147 56.392C50.8907 56.096 50.9787 55.736 50.9787 55.312C50.9787 54.888 50.8867 54.528 50.7027 54.232C50.5267 53.936 50.2827 53.712 49.9707 53.56C49.6587 53.408 49.3027 53.332 48.9027 53.332C48.7987 53.332 48.6827 53.336 48.5547 53.344C48.4347 53.352 48.3347 53.364 48.2547 53.38L48.0627 52.96L50.4747 49.9H46.3587V49.06H51.5547V49.9L49.2987 52.744L49.1787 52.588C49.7147 52.604 50.1907 52.732 50.6067 52.972C51.0227 53.204 51.3467 53.52 51.5787 53.92C51.8187 54.32 51.9387 54.784 51.9387 55.312C51.9387 55.84 51.8107 56.32 51.5547 56.752C51.2987 57.176 50.9427 57.516 50.4867 57.772C50.0307 58.02 49.5067 58.144 48.9147 58.144ZM53.6472 58L57.6792 49.9H53.2152V49.06H58.6752V49.9L54.6552 58H53.6472ZM63.2367 58V55.888H58.6887V55.108L63.2367 49.06H64.0767V55.108H65.1687V55.888H64.0767V58H63.2367ZM59.4207 55.456L59.3127 55.108H63.2367V49.888L63.5367 49.972L59.4207 55.456Z" fill="white"/>
<path d="M180.029 58V49.06H180.989V58H180.029ZM185.871 58.144C185.271 58.144 184.731 58 184.251 57.712C183.771 57.416 183.391 57.016 183.111 56.512C182.839 56 182.703 55.424 182.703 54.784C182.703 54.136 182.839 53.56 183.111 53.056C183.391 52.552 183.767 52.156 184.239 51.868C184.719 51.572 185.263 51.424 185.871 51.424C186.423 51.424 186.915 51.544 187.347 51.784C187.779 52.024 188.119 52.348 188.367 52.756L188.223 53.008V48.916H189.123V58H188.223V56.56L188.367 56.692C188.143 57.156 187.807 57.516 187.359 57.772C186.919 58.02 186.423 58.144 185.871 58.144ZM185.919 57.244C186.351 57.244 186.739 57.136 187.083 56.92C187.435 56.704 187.711 56.412 187.911 56.044C188.119 55.668 188.223 55.248 188.223 54.784C188.223 54.32 188.119 53.904 187.911 53.536C187.711 53.16 187.435 52.864 187.083 52.648C186.739 52.432 186.351 52.324 185.919 52.324C185.495 52.324 185.111 52.432 184.767 52.648C184.423 52.864 184.151 53.156 183.951 53.524C183.759 53.892 183.663 54.312 183.663 54.784C183.663 55.248 183.759 55.668 183.951 56.044C184.151 56.412 184.419 56.704 184.755 56.92C185.099 57.136 185.487 57.244 185.919 57.244ZM190.971 58V51.568H191.871V52.624L191.751 52.468C191.903 52.164 192.131 51.924 192.435 51.748C192.747 51.572 193.123 51.484 193.563 51.484H193.971V52.384H193.407C192.943 52.384 192.571 52.528 192.291 52.816C192.011 53.104 191.871 53.512 191.871 54.04V58H190.971ZM194.857 58V56.68H195.817V58H194.857ZM200.679 58.144C200.215 58.144 199.783 58.064 199.383 57.904C198.991 57.744 198.647 57.516 198.351 57.22C198.055 56.924 197.831 56.572 197.679 56.164L198.411 55.804C198.595 56.268 198.895 56.636 199.311 56.908C199.735 57.172 200.191 57.304 200.679 57.304C201.071 57.304 201.419 57.212 201.723 57.028C202.035 56.844 202.279 56.596 202.455 56.284C202.631 55.964 202.719 55.608 202.719 55.216C202.719 54.808 202.627 54.448 202.443 54.136C202.267 53.824 202.027 53.58 201.723 53.404C201.419 53.22 201.075 53.128 200.691 53.128C200.299 53.128 199.935 53.22 199.599 53.404C199.271 53.58 199.031 53.796 198.879 54.052L198.123 53.908L198.795 49.06H203.319V49.9H199.143L199.515 49.576L198.975 53.392L198.603 53.224C198.883 52.88 199.211 52.636 199.587 52.492C199.963 52.34 200.347 52.264 200.739 52.264C201.315 52.264 201.823 52.4 202.263 52.672C202.703 52.936 203.047 53.292 203.295 53.74C203.551 54.18 203.679 54.672 203.679 55.216C203.679 55.768 203.547 56.268 203.283 56.716C203.027 57.156 202.671 57.504 202.215 57.76C201.767 58.016 201.255 58.144 200.679 58.144ZM208.853 58.144C208.149 58.144 207.529 57.952 206.993 57.568C206.465 57.176 206.053 56.636 205.757 55.948C205.461 55.252 205.313 54.444 205.313 53.524C205.313 52.604 205.461 51.8 205.757 51.112C206.053 50.416 206.465 49.876 206.993 49.492C207.521 49.108 208.137 48.916 208.841 48.916C209.545 48.916 210.161 49.108 210.689 49.492C211.217 49.876 211.629 50.416 211.925 51.112C212.221 51.8 212.369 52.604 212.369 53.524C212.369 54.444 212.221 55.252 211.925 55.948C211.637 56.644 211.229 57.184 210.701 57.568C210.173 57.952 209.557 58.144 208.853 58.144ZM208.853 57.244C209.365 57.244 209.813 57.088 210.197 56.776C210.581 56.464 210.881 56.032 211.097 55.48C211.313 54.92 211.421 54.268 211.421 53.524C211.421 52.78 211.313 52.132 211.097 51.58C210.881 51.02 210.581 50.588 210.197 50.284C209.813 49.972 209.361 49.816 208.841 49.816C208.329 49.816 207.881 49.972 207.497 50.284C207.113 50.588 206.813 51.02 206.597 51.58C206.381 52.132 206.273 52.78 206.273 53.524C206.273 54.26 206.381 54.908 206.597 55.468C206.813 56.028 207.113 56.464 207.497 56.776C207.889 57.088 208.341 57.244 208.853 57.244ZM217.642 58.144C216.938 58.144 216.318 57.952 215.782 57.568C215.254 57.176 214.842 56.636 214.546 55.948C214.25 55.252 214.102 54.444 214.102 53.524C214.102 52.604 214.25 51.8 214.546 51.112C214.842 50.416 215.254 49.876 215.782 49.492C216.31 49.108 216.926 48.916 217.63 48.916C218.334 48.916 218.95 49.108 219.478 49.492C220.006 49.876 220.418 50.416 220.714 51.112C221.01 51.8 221.158 52.604 221.158 53.524C221.158 54.444 221.01 55.252 220.714 55.948C220.426 56.644 220.018 57.184 219.49 57.568C218.962 57.952 218.346 58.144 217.642 58.144ZM217.642 57.244C218.154 57.244 218.602 57.088 218.986 56.776C219.37 56.464 219.67 56.032 219.886 55.48C220.102 54.92 220.21 54.268 220.21 53.524C220.21 52.78 220.102 52.132 219.886 51.58C219.67 51.02 219.37 50.588 218.986 50.284C218.602 49.972 218.15 49.816 217.63 49.816C217.118 49.816 216.67 49.972 216.286 50.284C215.902 50.588 215.602 51.02 215.386 51.58C215.17 52.132 215.062 52.78 215.062 53.524C215.062 54.26 215.17 54.908 215.386 55.468C215.602 56.028 215.902 56.464 216.286 56.776C216.678 57.088 217.13 57.244 217.642 57.244Z" fill="white"/>
<defs>
<filter id="filter0_d_20_4926" x="21" y="0" width="47" height="47" filterUnits="userSpaceOnUse" color-interpolation-filters="sRGB">
<feFlood flood-opacity="0" result="BackgroundImageFix"/>
<feColorMatrix in="SourceAlpha" type="matrix" values="0 0 0 0 0 0 0 0 0 0 0 0 0 0 0 0 0 0 127 0" result="hardAlpha"/>
<feOffset dy="4"/>
<feGaussianBlur stdDeviation="5"/>
<feComposite in2="hardAlpha" operator="out"/>
<feColorMatrix type="matrix" values="0 0 0 0 0 0 0 0 0 0 0 0 0 0 0 0 0 0 0.1 0"/>
<feBlend mode="normal" in2="BackgroundImageFix" result="effect1_dropShadow_20_4926"/>
<feBlend mode="normal" in="SourceGraphic" in2="effect1_dropShadow_20_4926" result="shape"/>
</filter>
<filter id="filter1_d_20_4926" x="175" y="0" width="47" height="47" filterUnits="userSpaceOnUse" color-interpolation-filters="sRGB">
<feFlood flood-opacity="0" result="BackgroundImageFix"/>
<feColorMatrix in="SourceAlpha" type="matrix" values="0 0 0 0 0 0 0 0 0 0 0 0 0 0 0 0 0 0 127 0" result="hardAlpha"/>
<feOffset dy="4"/>
<feGaussianBlur stdDeviation="5"/>
<feComposite in2="hardAlpha" operator="out"/>
<feColorMatrix type="matrix" values="0 0 0 0 0 0 0 0 0 0 0 0 0 0 0 0 0 0 0.1 0"/>
<feBlend mode="normal" in2="BackgroundImageFix" result="effect1_dropShadow_20_4926"/>
<feBlend mode="normal" in="SourceGraphic" in2="effect1_dropShadow_20_4926" result="shape"/>
</filter>
</defs>
</svg>
